<svg width="52" height="52" viewBox="0 0 52 52" fill="none" xmlns="http://www.w3.org/2000/svg">
<g clip-path="url(#clip0_6372_11859)">
<path fill-rule="evenodd" clip-rule="evenodd" d="M22.1806 13.4485C24.1176 20.4068 21.0106 25.1258 14.4164 26.8288C12.2734 27.3948 10.0281 27.4549 7.85788 27.0043C7.70188 26.9718 10.7829 36.0328 12.8044 41.9868L14.1369 45.903C14.2065 46.1174 14.2326 46.3435 14.2135 46.5681C14.1945 46.7927 14.1307 47.0112 14.0259 47.2108C13.9211 47.4104 13.7774 47.587 13.6034 47.7302C13.4293 47.8734 13.2284 47.9804 13.0124 48.0448L11.0851 48.6623C10.6411 48.8077 10.1577 48.7735 9.73857 48.567C9.31943 48.3605 8.99782 47.998 8.84263 47.5573L0.597377 22.7175C-1.66462 15.7723 2.74888 8.71328 8.93038 7.11753C15.5246 5.41778 19.9901 7.11753 22.1806 13.4485ZM19.3596 20.6668C20.7571 20.3028 21.1829 17.4395 20.3086 14.2675C19.4344 11.0988 17.5916 8.82378 16.1941 9.18778C14.7966 9.55178 14.3709 12.4183 15.2451 15.587C16.1194 18.7558 17.9621 21.0308 19.3596 20.6668ZM29.8181 13.4485C27.8811 20.4068 30.9881 25.1258 37.5824 26.8288C39.7254 27.3948 41.9706 27.4549 44.1409 27.0043C44.2969 26.9718 41.2159 36.0328 39.1944 41.9868L37.8619 45.903C37.7922 46.1174 37.7662 46.3435 37.7852 46.5681C37.8043 46.7927 37.8681 47.0112 37.9729 47.2108C38.0777 47.4104 38.2213 47.587 38.3954 47.7302C38.5694 47.8734 38.7704 47.9804 38.9864 48.0448L40.9136 48.6623C41.8529 48.9613 42.8636 48.4673 43.1561 47.5573L51.3981 22.7175C53.6601 15.7723 49.2466 8.71328 43.0651 7.11753C36.4709 5.41778 32.0086 7.11753 29.8181 13.4485ZM32.6391 20.6668C31.2416 20.3028 30.8159 17.4395 31.6901 14.2675C32.5644 11.0988 34.4071 8.82378 35.8046 9.18778C37.2021 9.55178 37.6279 12.4183 36.7536 15.587C35.8794 18.7558 34.0366 21.0308 32.6391 20.6668Z" fill="url(#paint0_linear_6372_11859)"/>
</g>
<defs>
<linearGradient id="paint0_linear_6372_11859" x1="-4.70391" y1="70.7578" x2="65.0479" y2="67.9537" gradientUnits="userSpaceOnUse">
<stop stop-color="#E56F41"/>
<stop offset="1" stop-color="#DE4B12"/>
</linearGradient>
<clipPath id="clip0_6372_11859">
<rect width="52" height="52" fill="white"/>
</clipPath>
</defs>
</svg>
