<svg width="46" height="43" viewBox="0 0 46 43" fill="none" xmlns="http://www.w3.org/2000/svg">
<path d="M37.375 13H1.625C1.19402 13 0.780698 13.1712 0.475951 13.476C0.171205 13.7807 0 14.194 0 14.625V24.375C0.00485643 27.1415 0.596498 29.8756 1.73586 32.3966C2.87523 34.9176 4.53639 37.1683 6.60969 39H1.625C1.19402 39 0.780698 39.1712 0.475951 39.476C0.171205 39.7807 0 40.194 0 40.625C0 41.056 0.171205 41.4693 0.475951 41.774C0.780698 42.0788 1.19402 42.25 1.625 42.25H37.375C37.806 42.25 38.2193 42.0788 38.524 41.774C38.8288 41.4693 39 41.056 39 40.625C39 40.194 38.8288 39.7807 38.524 39.476C38.2193 39.1712 37.806 39 37.375 39H32.3903C34.879 36.7942 36.7662 33.992 37.8747 30.8567C39.9387 30.7295 41.8765 29.8202 43.2933 28.3139C44.7101 26.8077 45.4993 24.8179 45.5 22.75V21.125C45.5 18.9701 44.644 16.9035 43.1202 15.3798C41.5965 13.856 39.5299 13 37.375 13ZM42.25 22.75C42.2493 23.8013 41.9087 24.8243 41.2791 25.6662C40.6494 26.5082 39.7645 27.124 38.7563 27.4219C38.9171 26.4142 38.9986 25.3954 39 24.375V16.5303C39.9502 16.8663 40.773 17.4885 41.355 18.3113C41.937 19.1341 42.2497 20.1171 42.25 21.125V22.75ZM17.875 8.125V1.625C17.875 1.19402 18.0462 0.780698 18.351 0.475951C18.6557 0.171205 19.069 0 19.5 0C19.931 0 20.3443 0.171205 20.649 0.475951C20.9538 0.780698 21.125 1.19402 21.125 1.625V8.125C21.125 8.55598 20.9538 8.9693 20.649 9.27405C20.3443 9.57879 19.931 9.75 19.5 9.75C19.069 9.75 18.6557 9.57879 18.351 9.27405C18.0462 8.9693 17.875 8.55598 17.875 8.125ZM24.375 8.125V1.625C24.375 1.19402 24.5462 0.780698 24.851 0.475951C25.1557 0.171205 25.569 0 26 0C26.431 0 26.8443 0.171205 27.149 0.475951C27.4538 0.780698 27.625 1.19402 27.625 1.625V8.125C27.625 8.55598 27.4538 8.9693 27.149 9.27405C26.8443 9.57879 26.431 9.75 26 9.75C25.569 9.75 25.1557 9.57879 24.851 9.27405C24.5462 8.9693 24.375 8.55598 24.375 8.125ZM11.375 8.125V1.625C11.375 1.19402 11.5462 0.780698 11.851 0.475951C12.1557 0.171205 12.569 0 13 0C13.431 0 13.8443 0.171205 14.149 0.475951C14.4538 0.780698 14.625 1.19402 14.625 1.625V8.125C14.625 8.55598 14.4538 8.9693 14.149 9.27405C13.8443 9.57879 13.431 9.75 13 9.75C12.569 9.75 12.1557 9.57879 11.851 9.27405C11.5462 8.9693 11.375 8.55598 11.375 8.125Z" fill="url(#paint0_linear_6372_11846)"/>
<defs>
<linearGradient id="paint0_linear_6372_11846" x1="-4.11224" y1="64.2552" x2="56.9398" y2="62.1076" gradientUnits="userSpaceOnUse">
<stop stop-color="#E56F41"/>
<stop offset="1" stop-color="#DE4B12"/>
</linearGradient>
</defs>
</svg>
