<svg width="52" height="52" viewBox="0 0 52 52" fill="none" xmlns="http://www.w3.org/2000/svg">
<path d="M45.4122 39.8667C43.3322 40.9067 40.5589 40.2133 39.1722 38.1333L35.3589 33.28H16.6389L12.8256 38.1333C11.0922 40.56 7.97224 40.9067 5.54557 39.1733C3.81224 37.7867 3.11891 35.7067 3.46557 33.9733L5.89224 21.1467C6.58557 16.9867 10.3989 13.8667 14.5589 13.8667H24.2656V8.66667C24.2656 5.89334 26.3456 3.46667 29.1189 3.46667H39.8656C40.9056 3.46667 41.5989 4.16001 41.5989 5.20001C41.5989 6.24001 40.9056 6.93334 39.8656 6.93334H29.4656C28.4256 6.93334 27.7322 7.62668 27.7322 8.32001V13.8667H37.4389C41.5989 13.8667 45.4122 16.9867 46.1056 21.1467L48.5322 33.9733C48.8789 36.4 47.8389 38.8267 45.4122 39.8667ZM20.7989 22.5333C20.7989 19.76 18.3722 17.3333 15.5989 17.3333C12.8256 17.3333 10.3989 19.76 10.3989 22.5333C10.3989 25.3067 12.8256 27.7333 15.5989 27.7333C18.3722 27.7333 20.7989 25.3067 20.7989 22.5333ZM41.5989 22.5333C41.5989 21.4933 40.9056 20.8 39.8656 20.8H38.1322V19.0667C38.1322 18.0267 37.4389 17.3333 36.3989 17.3333C35.3589 17.3333 34.6656 18.0267 34.6656 19.0667V20.8H32.9322C31.8922 20.8 31.1989 21.4933 31.1989 22.5333C31.1989 23.5733 31.8922 24.2667 32.9322 24.2667H34.6656V26C34.6656 27.04 35.3589 27.7333 36.3989 27.7333C37.4389 27.7333 38.1322 27.04 38.1322 26V24.2667H39.8656C40.9056 24.2667 41.5989 23.5733 41.5989 22.5333Z" fill="url(#paint0_linear_6372_11868)"/>
<defs>
<linearGradient id="paint0_linear_6372_11868" x1="-0.707882" y1="59.5517" x2="59.944" y2="57.1225" gradientUnits="userSpaceOnUse">
<stop stop-color="#E56F41"/>
<stop offset="1" stop-color="#DE4B12"/>
</linearGradient>
</defs>
</svg>
