<svg width="52" height="52" viewBox="0 0 52 52" fill="none" xmlns="http://www.w3.org/2000/svg">
<path d="M8.66536 6.5C7.51609 6.5 6.41389 6.95655 5.60124 7.7692C4.78858 8.58186 4.33203 9.68406 4.33203 10.8333V41.1667C4.33203 42.3159 4.78858 43.4181 5.60124 44.2308C6.41389 45.0435 7.51609 45.5 8.66536 45.5H25.9987C27.148 45.5 28.2502 45.0435 29.0628 44.2308C29.8755 43.4181 30.332 42.3159 30.332 41.1667V10.8333C30.332 9.68406 29.8755 8.58186 29.0628 7.7692C28.2502 6.95655 27.148 6.5 25.9987 6.5H8.66536ZM17.332 10.8333C18.4813 10.8333 19.5835 11.2899 20.3962 12.1025C21.2088 12.9152 21.6654 14.0174 21.6654 15.1667C21.6654 16.3159 21.2088 17.4181 20.3962 18.2308C19.5835 19.0435 18.4813 19.5 17.332 19.5C16.1828 19.5 15.0806 19.0435 14.2679 18.2308C13.4552 17.4181 12.9987 16.3159 12.9987 15.1667C12.9987 14.0174 13.4552 12.9152 14.2679 12.1025C15.0806 11.2899 16.1828 10.8333 17.332 10.8333ZM41.1654 15.1667V23.3783L36.2037 18.4167L34.6654 19.955L40.7104 26L34.6654 32.045L36.2037 33.5833L41.1654 28.6217V36.8333H42.2487L48.4237 30.6367L43.787 26L48.4237 21.3417L42.2487 15.1667H41.1654ZM43.332 19.305L45.3687 21.3417L43.332 23.3783V19.305ZM17.332 23.8333C19.6306 23.8333 21.835 24.7464 23.4603 26.3717C25.0856 27.9971 25.9987 30.2015 25.9987 32.5C25.9987 34.7985 25.0856 37.0029 23.4603 38.6283C21.835 40.2536 19.6306 41.1667 17.332 41.1667C15.0335 41.1667 12.8291 40.2536 11.2038 38.6283C9.57846 37.0029 8.66536 34.7985 8.66536 32.5C8.66536 30.2015 9.57846 27.9971 11.2038 26.3717C12.8291 24.7464 15.0335 23.8333 17.332 23.8333ZM17.332 28.1667C16.1828 28.1667 15.0806 28.6232 14.2679 29.4359C13.4552 30.2485 12.9987 31.3507 12.9987 32.5C12.9987 33.6493 13.4552 34.7515 14.2679 35.5641C15.0806 36.3768 16.1828 36.8333 17.332 36.8333C18.4813 36.8333 19.5835 36.3768 20.3962 35.5641C21.2088 34.7515 21.6654 33.6493 21.6654 32.5C21.6654 31.3507 21.2088 30.2485 20.3962 29.4359C19.5835 28.6232 18.4813 28.1667 17.332 28.1667ZM43.332 28.6217L45.3687 30.6367L43.332 32.6733V28.6217Z" fill="url(#paint0_linear_6372_11851)"/>
<defs>
<linearGradient id="paint0_linear_6372_11851" x1="0.34707" y1="65.8125" x2="59.5019" y2="63.628" gradientUnits="userSpaceOnUse">
<stop stop-color="#E56F41"/>
<stop offset="1" stop-color="#DE4B12"/>
</linearGradient>
</defs>
</svg>
