<svg width="44" height="39" viewBox="0 0 44 39" fill="none" xmlns="http://www.w3.org/2000/svg">
<path d="M27.9132 0.0156887L28.119 0.000522138L28.3617 0.00918869L28.6065 0.0460219L28.8513 0.111022L41.8513 4.44436C42.2421 4.57464 42.5876 4.81362 42.8474 5.13328C43.1072 5.45294 43.2705 5.84003 43.3182 6.24919L43.3333 6.50052V17.3339C43.3333 17.8645 43.1384 18.3768 42.7858 18.7733C42.4331 19.1699 41.9472 19.4233 41.4202 19.4854L41.1667 19.5005H36.8333V34.6672C36.8337 35.7604 36.4208 36.8134 35.6774 37.615C34.9341 38.4167 33.9152 38.9077 32.825 38.9897L32.5 39.0005H10.8333C9.74008 39.0009 8.68711 38.588 7.88548 37.8446C7.08385 37.1012 6.59283 36.0824 6.51083 34.9922L6.5 34.6672V19.5005H2.16667C1.63598 19.5005 1.12377 19.3056 0.727194 18.953C0.330619 18.6003 0.0772573 18.1144 0.0151667 17.5874L1.23656e-07 17.3339V6.50052C-0.000139043 6.08852 0.117192 5.68503 0.338235 5.33734C0.559278 4.98966 0.874869 4.71221 1.248 4.53752L1.482 4.44436L14.482 0.111022C14.8077 0.0025356 15.1546 -0.0269971 15.4939 0.0248589C15.8333 0.076715 16.1555 0.208475 16.434 0.40928C16.7124 0.610085 16.9392 0.874188 17.0955 1.17982C17.2519 1.48546 17.3334 1.82388 17.3333 2.16719C17.3283 3.29165 17.7606 4.37404 18.5388 5.18569C19.3171 5.99733 20.3804 6.47467 21.504 6.51686C22.6277 6.55905 23.7238 6.16279 24.5607 5.41179C25.3976 4.66079 25.9099 3.61386 25.9892 2.49219L26.0087 1.97219L26.0455 1.72736L26.1257 1.43702L26.221 1.21386L26.3293 1.01452L26.4767 0.813022L26.6262 0.639689C26.7461 0.524133 26.8724 0.423022 27.0053 0.336355L27.2133 0.221522L27.4365 0.126189L27.6705 0.0568555L27.9132 0.0156887Z" fill="url(#paint0_linear_6372_11849)"/>
<defs>
<linearGradient id="paint0_linear_6372_11849" x1="-3.91642" y1="59.3133" x2="54.2237" y2="57.2032" gradientUnits="userSpaceOnUse">
<stop stop-color="#E56F41"/>
<stop offset="1" stop-color="#DE4B12"/>
</linearGradient>
</defs>
</svg>
