<svg width="52" height="52" viewBox="0 0 52 52" fill="none" xmlns="http://www.w3.org/2000/svg">
<g clip-path="url(#clip0_6372_11862)">
<path d="M15.9893 6.60835C16.0322 6.63307 16.0807 6.64608 16.1302 6.64608C16.1796 6.64608 16.2282 6.63307 16.271 6.60835C19.2952 5.08444 22.6345 4.29063 26.021 4.29063C29.4075 4.29063 32.7468 5.08444 35.771 6.60835C35.8138 6.63307 35.8624 6.64608 35.9118 6.64608C35.9613 6.64608 36.0099 6.63307 36.0527 6.60835C36.0826 6.56749 36.0987 6.51816 36.0987 6.46751C36.0987 6.41687 36.0826 6.36754 36.0527 6.32668L34.666 0.801681C34.6061 0.563316 34.4654 0.353107 34.2679 0.206912C34.0703 0.0607178 33.8281 -0.012406 33.5827 1.45906e-05H18.416C18.1706 -0.012406 17.9284 0.0607178 17.7308 0.206912C17.5333 0.353107 17.3926 0.563316 17.3327 0.801681L15.9027 6.32668C15.8834 6.37655 15.8815 6.43143 15.8973 6.48252C15.913 6.5336 15.9454 6.57792 15.9893 6.60835ZM36.0093 45.5C35.9665 45.4753 35.918 45.4623 35.8685 45.4623C35.8191 45.4623 35.7705 45.4753 35.7277 45.5C32.7035 47.0239 29.3641 47.8177 25.9777 47.8177C22.5912 47.8177 19.2519 47.0239 16.2277 45.5C16.1849 45.4753 16.1363 45.4623 16.0868 45.4623C16.0374 45.4623 15.9888 45.4753 15.946 45.5C15.9161 45.5409 15.8999 45.5902 15.8999 45.6409C15.8999 45.6915 15.9161 45.7408 15.946 45.7817L17.3327 51.1983C17.3926 51.4367 17.5333 51.6469 17.7308 51.7931C17.9284 51.9393 18.1706 52.0124 18.416 52H33.5827C33.8208 52.0024 34.0529 51.9246 34.2415 51.7793C34.4301 51.6339 34.5644 51.4293 34.6227 51.1983L36.096 45.6733C36.0945 45.64 36.086 45.6073 36.0711 45.5775C36.0562 45.5476 36.0351 45.5212 36.0093 45.5Z" fill="url(#paint0_linear_6372_11862)"/>
<path d="M7.58203 26C7.58203 30.8844 9.52235 35.5687 12.9761 39.0225C16.4299 42.4763 21.1143 44.4166 25.9987 44.4166C30.8831 44.4166 35.5675 42.4763 39.0212 39.0225C42.475 35.5687 44.4154 30.8844 44.4154 26C44.4154 21.1156 42.475 16.4312 39.0212 12.9774C35.5675 9.52364 30.8831 7.58331 25.9987 7.58331C21.1143 7.58331 16.4299 9.52364 12.9761 12.9774C9.52235 16.4312 7.58203 21.1156 7.58203 26Z" fill="url(#paint1_linear_6372_11862)"/>
</g>
<defs>
<linearGradient id="paint0_linear_6372_11862" x1="14.06" y1="79.0861" x2="41.2097" y2="78.7414" gradientUnits="userSpaceOnUse">
<stop stop-color="#E56F41"/>
<stop offset="1" stop-color="#DE4B12"/>
</linearGradient>
<linearGradient id="paint1_linear_6372_11862" x1="4.25307" y1="63.6007" x2="53.6845" y2="61.9861" gradientUnits="userSpaceOnUse">
<stop stop-color="#E56F41"/>
<stop offset="1" stop-color="#DE4B12"/>
</linearGradient>
<clipPath id="clip0_6372_11862">
<rect width="52" height="52" fill="white"/>
</clipPath>
</defs>
</svg>
